<svg xmlns="http://www.w3.org/2000/svg" version="1.1" xmlns:xlink="http://www.w3.org/1999/xlink" xmlns:svgjs="http://svgjs.dev/svgjs" width="2000" height="1498" viewBox="0 0 2000 1498"><g transform="matrix(1,0,0,1,-2.8271137398407973,-2.416129032258141)"><svg viewBox="0 0 331 248" data-background-color="#c8c8c8" preserveAspectRatio="xMidYMid meet" height="1498" width="2000" xmlns="http://www.w3.org/2000/svg" xmlns:xlink="http://www.w3.org/1999/xlink"><g id="tight-bounds" transform="matrix(1,0,0,1,0.46788732394364274,0.4000000000000057)"><svg viewBox="0 0 330.0642253521127 247.2" height="247.2" width="330.0642253521127"><g><svg viewBox="0 0 330.0642253521127 247.2" height="247.2" width="330.0642253521127"><g><svg viewBox="0 0 330.0642253521127 247.2" height="247.2" width="330.0642253521127"><g id="textblocktransform"><svg viewBox="0 0 330.0642253521127 247.2" height="247.2" width="330.0642253521127" id="textblock"><g><svg viewBox="0 0 330.0642253521127 247.2" height="247.2" width="330.0642253521127"><g transform="matrix(1,0,0,1,0,0)"><svg width="330.0642253521127" viewBox="2.75 -35 47.4 35.5" height="247.2" data-palette-color="#ffffff"><path d="M10.8-24L19.65-24 19.65-19.8 10.8-19.8Q9.35-19.8 8.3-19.25 7.25-18.7 7.25-17.7L7.25-17.7Q7.25-17.1 7.5-16.63 7.75-16.15 8.08-15.85 8.4-15.55 9.08-15.23 9.75-14.9 10.13-14.78 10.5-14.65 13.3-13.75 16.1-12.85 17.45-12.25 18.8-11.65 19.53-10.63 20.25-9.6 20.45-8.63 20.65-7.65 20.65-6.7L20.65-6.7Q20.65 0 11.45 0L11.45 0 2.8 0 2.8-4.2 11.45-4.2Q16.15-4.2 16.15-6.7L16.15-6.7Q16.15-7.9 14.78-8.7 13.4-9.5 11.43-10.05 9.45-10.6 7.48-11.33 5.5-12.05 4.13-13.68 2.75-15.3 2.75-17.7L2.75-17.7Q2.75-20.75 5.1-22.38 7.45-24 10.8-24L10.8-24ZM25.65-12L25.65-35 30.15-35 30.15-12Q30.15-8.05 32.17-5.88 34.2-3.7 37.75-3.7L37.75-3.7Q41.45-3.7 43.55-5.83 45.65-7.95 45.65-12L45.65-12Q45.65-15.85 43.37-18.07 41.1-20.3 37.4-20.3L37.4-20.3Q34.25-20.3 31.95-18.5L31.95-18.5 31.95-23Q34.7-24.5 37.9-24.5L37.9-24.5Q43.2-24.5 46.67-21.08 50.15-17.65 50.15-12L50.15-12Q50.15-6.05 46.52-2.78 42.9 0.5 37.4 0.5L37.4 0.5Q32.15 0.5 28.9-2.9 25.65-6.3 25.65-12L25.65-12Z" opacity="1" transform="matrix(1,0,0,1,0,0)" fill="#ffffff" class="wordmark-text-0" data-fill-palette-color="primary" id="text-0"></path></svg></g></svg></g></svg></g></svg></g></svg></g><defs></defs></svg><rect width="330.0642253521127" height="247.2" fill="none" stroke="none" visibility="hidden"></rect></g></svg></g></svg>